# xmcd
#
# Track frame offsets:
#	150
#	25569
#	48275
#	64002
#	77345
#	100980
#	126072
#	141300
#
# Disc length: 2156 seconds
#
# Revision: 0
# Processed by: cddbd v1.5.1PL2 Copyright (c) Steve Scherf et al.
# Submitted via: audiograbber 1.83.01
#
DISCID=5d086a08
DTITLE=Nina Simone - Greatest Hits
DYEAR=1993
DGENRE=Jazz
TTITLE0=It`s cold here
TTITLE1=Porgy
TTITLE2=I Sing just to know I`m alive
TTITLE3=For a while
TTITLE4=Fodder on her Wings
TTITLE5=Touching and Caring
TTITLE6=Saratoga
TTITLE7=You must have another Lover
EXTD=
EXTT0=
EXTT1=
EXTT2=
EXTT3=
EXTT4=
EXTT5=
EXTT6=
EXTT7=
PLAYORDER=
